<svg id="svg" version="1.1" width="672" height="672" xmlns="http://www.w3.org/2000/svg" xmlns:xlink="http://www.w3.org/1999/xlink" style="display: block;"><g id="svgg"><path id="path0" d="" stroke="none" fill="#000000" fill-rule="evenodd"></path><path id="path1" d="" stroke="none" fill="#ff0000" fill-rule="evenodd"></path><path id="path2" d="M162.448 52.372 C 161.257 53.001,159.283 54.996,157.984 56.882 L 155.655 60.264 155.655 130.928 L 155.655 201.591 157.843 204.887 C 160.077 208.252,160.850 208.783,172.619 215.037 C 174.420 215.994,176.161 216.988,176.488 217.246 C 176.815 217.504,179.092 218.780,181.548 220.082 C 184.003 221.385,188.289 223.723,191.071 225.278 C 193.854 226.834,198.140 229.182,200.595 230.495 C 203.051 231.809,205.370 233.132,205.750 233.434 C 206.129 233.737,207.870 234.730,209.619 235.641 C 211.367 236.552,215.610 238.857,219.048 240.764 C 222.485 242.670,225.967 244.589,226.786 245.028 C 232.283 247.976,240.487 244.262,243.391 237.511 L 244.662 234.556 244.504 164.994 L 244.345 95.432 242.171 92.157 C 240.298 89.337,239.140 88.402,233.837 85.427 C 230.450 83.526,225.938 80.974,223.810 79.755 C 218.526 76.728,214.652 74.574,210.390 72.293 C 208.411 71.233,205.479 69.534,203.875 68.517 C 202.270 67.499,200.754 66.667,200.505 66.667 C 200.256 66.667,198.634 65.825,196.901 64.797 C 195.168 63.768,192.411 62.212,190.774 61.340 C 189.137 60.467,185.253 58.312,182.143 56.550 C 179.033 54.789,175.561 52.863,174.428 52.269 C 171.605 50.791,165.337 50.845,162.448 52.372 M180.005 63.336 C 181.999 64.449,184.836 66.021,186.310 66.830 C 187.783 67.639,191.265 69.570,194.048 71.120 C 196.830 72.671,200.714 74.813,202.679 75.880 C 204.643 76.947,207.668 78.659,209.401 79.684 C 211.134 80.709,212.748 81.548,212.988 81.548 C 213.228 81.548,215.361 82.753,217.728 84.226 C 220.095 85.699,222.251 86.905,222.518 86.905 C 222.785 86.905,224.899 88.117,227.215 89.599 C 233.456 93.592,233.336 93.134,233.320 112.888 C 233.303 134.204,234.455 132.331,221.101 132.757 L 211.178 133.074 209.458 134.999 L 207.738 136.924 207.738 147.285 C 207.738 157.486,207.715 157.674,206.241 159.426 L 204.744 161.205 195.182 161.406 L 185.621 161.607 183.584 163.831 L 181.548 166.054 181.548 176.446 C 181.548 190.401,181.829 190.033,170.906 190.374 L 163.095 190.617 163.095 129.516 C 163.095 63.064,162.935 66.253,166.445 62.997 C 169.559 60.108,174.440 60.231,180.005 63.336 M232.670 140.421 C 233.967 141.243,232.968 143.898,230.973 144.930 C 228.419 146.250,227.233 146.071,222.769 143.688 C 214.958 139.517,214.856 139.888,223.810 139.894 C 228.229 139.897,232.216 140.134,232.670 140.421 M213.095 171.726 C 215.551 173.192,217.756 174.394,217.995 174.398 C 218.235 174.402,220.182 175.476,222.321 176.786 C 224.461 178.095,226.395 179.167,226.618 179.167 C 228.078 179.167,233.333 183.138,233.333 184.241 C 233.333 187.421,227.224 190.188,224.746 188.131 C 223.973 187.490,219.695 185.098,209.524 179.622 C 207.068 178.300,204.749 176.974,204.369 176.676 C 203.990 176.378,202.249 175.384,200.500 174.466 C 198.752 173.549,195.754 171.954,193.838 170.923 L 190.355 169.048 199.493 169.054 L 208.631 169.061 213.095 171.726 M186.012 199.908 C 188.304 201.149,192.321 203.311,194.940 204.712 C 197.560 206.113,200.013 207.513,200.393 207.824 C 200.772 208.135,202.513 209.135,204.262 210.046 C 206.010 210.957,210.253 213.272,213.690 215.191 C 217.128 217.110,221.012 219.236,222.321 219.916 C 232.184 225.034,232.578 225.491,229.113 227.785 C 225.645 230.080,222.088 229.981,218.187 227.482 C 216.568 226.444,215.022 225.595,214.753 225.595 C 214.483 225.595,213.263 224.965,212.042 224.195 C 210.052 222.941,207.962 221.786,197.321 216.056 C 195.685 215.175,192.738 213.479,190.774 212.288 C 188.810 211.097,186.904 210.121,186.539 210.121 C 186.174 210.120,185.236 209.620,184.455 209.010 C 183.675 208.400,181.027 206.827,178.571 205.516 C 163.031 197.213,163.283 197.615,173.626 197.635 L 181.845 197.650 186.012 199.908 " stroke="none" fill="#ff6405" fill-rule="evenodd"></path><path id="path3" d="M114.535 304.167 C 114.535 310.551,114.622 313.162,114.729 309.970 C 114.836 306.778,114.836 301.555,114.729 298.363 C 114.622 295.171,114.535 297.783,114.535 304.167 M269.868 341.071 C 269.868 344.836,269.965 346.376,270.083 344.494 C 270.201 342.612,270.201 339.531,270.083 337.649 C 269.965 335.766,269.868 337.307,269.868 341.071 M129.973 342.560 C 129.971 345.506,130.072 346.786,130.197 345.405 C 130.322 344.023,130.323 341.613,130.200 340.048 C 130.077 338.483,129.975 339.613,129.973 342.560 M140.076 343.750 C 140.079 346.042,140.187 346.906,140.315 345.671 C 140.444 344.436,140.442 342.561,140.311 341.505 C 140.179 340.448,140.074 341.458,140.076 343.750 " stroke="none" fill="#143b14" fill-rule="evenodd"></path><path id="path4" d="M94.643 245.780 C 94.643 247.728,92.757 248.214,85.197 248.214 C 72.205 248.214,66.884 253.783,70.917 263.158 C 72.850 267.651,82.711 271.981,84.483 269.114 C 84.803 268.596,85.356 268.572,86.546 269.025 C 93.799 271.782,100.880 263.407,95.835 258.038 C 93.986 256.070,86.971 255.740,86.886 257.617 C 86.825 258.971,85.115 260.261,84.290 259.577 C 82.497 258.089,78.374 259.875,78.791 261.960 C 79.103 263.520,79.020 263.654,78.064 263.142 C 74.928 261.464,74.375 257.238,76.996 254.983 C 78.544 253.652,79.087 253.571,86.492 253.569 C 96.464 253.566,99.554 252.013,100.110 246.726 C 100.293 244.987,100.223 244.936,97.470 244.759 C 94.971 244.599,94.643 244.717,94.643 245.780 M167.857 245.962 C 165.947 246.931,165.027 247.834,164.649 249.107 C 164.138 250.834,163.999 250.895,160.423 250.946 C 155.457 251.016,152.134 252.709,147.741 257.404 C 142.182 263.348,142.232 263.454,150.822 263.889 C 158.603 264.284,169.733 266.351,175.000 268.381 C 176.801 269.075,178.375 269.642,178.499 269.643 C 179.156 269.643,177.702 264.094,176.200 260.866 C 174.574 257.371,174.535 257.115,175.546 256.574 C 182.385 252.914,174.796 242.442,167.857 245.962 M180.952 279.242 L 180.952 307.294 178.125 304.832 C 176.570 303.477,174.874 302.037,174.356 301.631 C 173.838 301.225,172.713 300.256,171.856 299.477 L 170.297 298.062 164.954 302.323 C 162.015 304.666,159.479 306.910,159.317 307.310 C 159.155 307.709,159.001 303.452,158.976 297.851 L 158.929 287.666 161.986 287.304 C 170.130 286.339,171.583 276.719,164.166 272.860 C 161.841 271.650,159.392 271.830,157.091 273.381 C 153.604 275.731,153.590 275.829,153.580 297.470 L 153.571 317.262 155.868 317.262 C 157.976 317.262,158.631 316.796,163.820 311.607 C 166.930 308.497,169.779 305.952,170.151 305.952 C 171.021 305.952,180.952 315.754,180.952 316.613 C 180.952 316.995,182.177 317.262,183.929 317.262 L 186.905 317.262 186.905 284.226 L 186.905 251.190 183.929 251.190 L 180.952 251.190 180.952 279.242 M166.440 256.919 C 168.758 258.019,172.013 261.906,169.910 261.062 C 168.009 260.300,158.198 258.353,155.952 258.293 L 153.869 258.237 156.250 257.110 C 159.189 255.720,163.733 255.634,166.440 256.919 M45.238 291.356 C 45.238 315.419,46.007 317.824,53.460 317.066 C 62.908 316.104,62.661 301.786,53.196 301.786 L 51.211 301.786 51.052 287.054 L 50.893 272.321 48.065 272.140 L 45.238 271.959 45.238 291.356 M79.960 272.595 C 75.394 273.682,69.833 278.331,68.080 282.527 C 67.453 284.028,67.262 288.316,67.262 300.874 L 67.262 317.262 70.127 317.262 C 72.806 317.262,73.150 317.078,75.429 314.435 C 76.770 312.879,78.360 311.068,78.963 310.410 C 94.129 293.852,94.328 293.536,92.553 288.889 C 90.614 283.810,84.984 282.301,80.811 285.741 C 77.025 288.862,76.720 294.290,80.178 297.011 L 81.744 298.242 80.285 299.865 C 79.482 300.758,77.563 302.883,76.020 304.588 L 73.214 307.687 73.217 296.552 C 73.219 286.548,73.337 285.223,74.384 283.506 C 78.179 277.282,89.008 276.052,94.069 281.271 L 96.131 283.397 96.429 300.181 L 96.726 316.964 99.554 317.146 L 102.381 317.327 102.381 300.307 C 102.381 280.866,102.355 280.746,97.259 276.260 C 93.035 272.542,86.233 271.101,79.960 272.595 M121.776 272.933 C 114.714 275.608,108.908 283.526,109.458 289.732 C 109.494 290.143,110.304 290.476,111.267 290.476 C 114.790 290.476,114.953 291.126,114.840 304.686 L 114.738 316.964 117.786 317.144 L 120.833 317.324 120.830 304.942 C 120.826 291.274,120.435 288.867,117.861 286.702 L 116.114 285.232 117.436 283.270 C 121.164 277.738,129.937 276.414,135.552 280.536 C 140.127 283.894,140.483 285.504,140.479 302.827 L 140.476 317.262 143.487 317.262 L 146.499 317.262 146.315 301.042 L 146.131 284.821 144.518 281.763 C 140.389 273.935,129.892 269.859,121.776 272.933 M205.510 273.250 C 198.767 275.918,194.048 282.198,194.048 288.501 C 194.048 290.288,194.214 290.476,195.791 290.476 C 199.251 290.476,199.405 291.087,199.405 304.804 L 199.405 317.262 202.083 317.262 L 204.762 317.262 204.762 303.354 C 204.762 288.229,204.517 287.093,200.959 285.728 C 197.583 284.433,207.392 277.976,212.737 277.976 C 222.497 277.976,224.970 282.932,224.987 302.530 L 225.000 317.262 228.026 317.262 L 231.052 317.262 230.849 301.042 C 230.625 283.126,230.546 282.730,226.228 277.812 C 221.635 272.581,212.360 270.539,205.510 273.250 M251.545 273.839 C 246.144 278.582,248.605 286.923,255.466 287.126 L 258.036 287.202 258.036 297.767 C 258.036 303.578,257.957 308.333,257.860 308.333 C 257.763 308.333,254.063 305.073,249.638 301.089 L 241.592 293.844 239.490 295.946 L 237.388 298.048 248.160 307.689 C 258.830 317.240,258.954 317.329,261.459 317.147 L 263.988 316.964 264.165 298.512 C 264.278 286.744,264.114 279.271,263.711 277.883 C 262.107 272.348,255.677 270.211,251.545 273.839 M281.360 272.629 C 275.980 274.244,272.158 279.150,271.050 285.863 L 270.681 288.095 273.733 288.095 C 276.776 288.095,276.786 288.089,276.807 286.161 C 276.896 278.007,289.272 274.949,295.536 281.533 L 297.321 283.410 297.496 300.336 L 297.671 317.262 300.621 317.262 L 303.571 317.262 303.551 301.935 C 303.521 280.299,302.424 276.634,294.940 273.156 C 292.379 271.966,284.579 271.663,281.360 272.629 M313.715 273.583 C 307.643 278.692,310.441 287.500,318.136 287.500 L 319.643 287.500 319.643 302.381 L 319.643 317.262 322.433 317.262 C 324.901 317.262,332.290 314.458,338.244 311.263 C 339.085 310.812,339.286 310.948,339.286 311.970 C 339.286 316.207,346.956 319.371,351.179 316.876 C 355.712 314.199,355.763 306.439,351.266 303.704 C 349.946 302.902,349.626 302.397,350.030 301.757 C 350.331 301.282,350.581 294.665,350.586 287.054 L 350.595 273.214 347.619 273.214 L 344.643 273.214 344.643 286.271 C 344.643 302.190,344.765 301.806,338.850 304.535 C 334.644 306.476,326.106 310.112,325.744 310.117 C 325.662 310.118,325.595 302.874,325.595 294.018 C 325.595 276.569,325.471 275.798,322.253 273.267 C 319.931 271.441,316.092 271.583,313.715 273.583 M134.151 333.123 C 130.470 333.919,127.952 348.175,131.401 348.694 C 134.137 349.105,140.411 340.307,138.910 338.164 C 136.987 335.418,133.531 337.198,134.090 340.645 C 134.283 341.835,134.082 343.033,133.572 343.730 C 132.823 344.754,132.738 344.507,132.738 341.299 C 132.738 337.214,133.481 335.873,136.012 335.388 C 139.407 334.736,140.162 336.017,140.300 342.660 C 140.412 348.049,140.518 348.527,141.639 348.702 C 143.609 349.010,143.495 336.521,141.511 334.657 C 140.154 333.382,136.489 332.619,134.151 333.123 M158.564 333.321 C 155.490 334.563,153.711 338.690,156.250 338.690 C 157.068 338.690,157.738 338.423,157.738 338.095 C 157.738 337.171,160.013 335.119,161.039 335.119 C 163.408 335.119,164.881 337.847,164.881 342.235 L 164.881 346.429 161.923 346.429 C 158.857 346.429,158.158 345.156,160.770 344.328 C 163.463 343.473,163.609 339.587,160.974 338.925 C 157.834 338.137,156.370 340.373,156.669 345.497 L 156.845 348.512 162.351 348.683 L 167.857 348.854 167.857 343.753 C 167.857 334.981,164.311 331.000,158.564 333.321 M180.804 333.381 C 179.157 334.340,179.438 337.378,181.250 338.204 C 182.664 338.848,182.738 339.128,182.738 343.846 C 182.738 351.345,184.575 351.129,187.402 343.298 C 188.495 340.273,189.634 337.180,189.935 336.425 C 191.026 333.684,191.667 335.873,191.667 342.338 C 191.667 348.795,191.687 348.889,193.006 348.702 C 195.702 348.319,195.244 334.354,192.502 333.311 C 189.181 332.049,187.866 333.397,185.510 340.476 C 185.347 340.967,185.192 339.704,185.166 337.670 C 185.109 333.211,183.616 331.743,180.804 333.381 M210.288 333.131 C 207.137 333.800,205.952 336.481,205.952 342.942 L 205.952 348.889 207.542 348.700 C 208.862 348.544,209.300 348.008,210.128 345.536 C 210.968 343.031,211.335 342.590,212.444 342.752 C 214.245 343.015,215.476 341.849,215.476 339.881 C 215.476 336.320,211.676 335.999,209.976 339.417 L 209.005 341.369 208.967 339.693 C 208.888 336.247,211.349 334.485,214.542 335.699 C 216.051 336.272,216.071 336.365,216.071 342.545 L 216.071 348.810 217.560 348.810 L 219.048 348.810 219.048 342.593 C 219.048 334.278,216.720 331.764,210.288 333.131 M234.212 333.569 C 232.606 334.269,230.952 336.579,230.952 338.123 C 230.952 339.286,233.844 338.705,234.238 337.464 C 235.875 332.305,240.703 335.481,240.948 341.877 L 241.122 346.429 238.418 346.429 C 235.539 346.429,234.565 345.088,236.905 344.345 C 239.994 343.365,239.272 338.690,236.032 338.690 C 233.816 338.690,232.738 340.780,232.738 345.073 L 232.738 348.810 238.393 348.810 L 244.048 348.810 244.048 343.691 C 244.048 334.722,240.335 330.901,234.212 333.569 M256.888 333.673 C 255.308 335.254,256.327 338.690,258.376 338.690 C 259.652 338.690,258.959 343.157,257.589 343.758 C 256.061 344.428,255.517 346.675,256.575 347.949 C 257.501 349.065,260.515 349.060,261.141 347.941 C 261.566 347.182,262.020 347.188,264.740 347.985 C 269.810 349.472,269.729 349.584,269.731 341.071 C 269.732 333.999,269.671 333.622,268.497 333.441 C 267.313 333.258,267.262 333.510,267.262 339.542 C 267.262 343.002,267.176 345.833,267.070 345.833 C 266.965 345.833,265.626 345.406,264.094 344.885 L 261.310 343.936 261.310 338.953 C 261.310 333.081,259.564 330.997,256.888 333.673 " stroke="none" fill="#414042" fill-rule="evenodd"></path></g></svg>