<svg id="svg" version="1.1" width="500" height="500" xmlns="http://www.w3.org/2000/svg" xmlns:xlink="http://www.w3.org/1999/xlink" style="display: block;"><g id="svgg"><path id="path0" d="M100.800 246.000 C 100.800 247.726,101.123 248.695,101.600 248.400 C 102.040 248.128,102.400 247.048,102.400 246.000 C 102.400 244.952,102.040 243.872,101.600 243.600 C 101.123 243.305,100.800 244.274,100.800 246.000 M179.212 250.200 C 179.220 251.088,179.439 251.268,179.812 250.693 C 180.136 250.193,181.120 249.605,182.000 249.385 C 183.226 249.079,183.086 248.964,181.400 248.893 C 179.799 248.825,179.203 249.181,179.212 250.200 M184.800 249.107 C 184.800 249.275,185.700 249.586,186.800 249.796 C 187.900 250.006,188.800 249.868,188.800 249.489 C 188.800 249.110,187.900 248.800,186.800 248.800 C 185.700 248.800,184.800 248.938,184.800 249.107 M67.200 258.000 C 67.200 261.654,68.382 261.651,68.460 257.998 C 68.493 256.459,68.223 255.200,67.860 255.200 C 67.497 255.200,67.200 256.460,67.200 258.000 M84.447 256.425 C 83.204 257.366,83.145 257.600,84.149 257.600 C 84.839 257.600,85.852 257.060,86.400 256.400 C 87.667 254.873,86.479 254.889,84.447 256.425 M142.004 262.654 C 141.649 263.492,141.766 264.486,142.280 265.000 C 143.513 266.233,143.843 265.571,143.180 263.200 C 142.685 261.431,142.549 261.368,142.004 262.654 M155.200 265.700 C 155.200 266.589,157.209 267.467,158.347 267.075 C 158.788 266.924,158.259 266.384,157.174 265.875 C 156.070 265.358,155.200 265.281,155.200 265.700 M75.200 271.625 C 75.200 272.919,76.450 273.213,77.148 272.084 C 77.392 271.690,77.053 271.161,76.395 270.909 C 75.669 270.630,75.200 270.911,75.200 271.625 M262.511 272.731 C 263.550 273.573,264.554 274.110,264.742 273.923 C 265.153 273.514,262.288 271.262,261.311 271.225 C 260.933 271.211,261.473 271.889,262.511 272.731 M196.119 276.483 C 195.525 277.155,195.197 277.864,195.391 278.058 C 195.585 278.251,196.397 277.688,197.196 276.805 C 197.994 275.922,198.322 275.214,197.924 275.230 C 197.526 275.247,196.714 275.811,196.119 276.483 M92.474 282.800 C 93.194 283.900,94.119 284.800,94.529 284.800 C 95.410 284.800,92.687 280.862,91.782 280.825 C 91.441 280.811,91.753 281.700,92.474 282.800 M83.200 282.400 C 83.200 282.840,83.920 283.200,84.800 283.200 C 85.680 283.200,86.400 282.840,86.400 282.400 C 86.400 281.960,85.680 281.600,84.800 281.600 C 83.920 281.600,83.200 281.960,83.200 282.400 M64.985 300.934 C 65.166 315.857,65.390 318.730,66.400 319.064 C 67.400 319.394,67.428 319.252,66.569 318.210 C 65.782 317.257,65.592 312.958,65.769 300.079 C 65.896 290.795,65.723 283.199,65.385 283.199 C 65.046 283.200,64.866 291.180,64.985 300.934 M231.212 284.153 C 231.236 286.161,232.774 287.816,232.788 285.847 C 232.794 284.883,232.440 283.872,232.000 283.600 C 231.560 283.328,231.206 283.577,231.212 284.153 M191.733 286.933 C 190.727 287.939,191.200 291.004,192.531 292.102 C 193.728 293.090,193.773 293.032,192.972 291.529 C 192.483 290.610,192.286 289.080,192.534 288.129 C 192.992 286.381,192.709 285.958,191.733 286.933 M295.386 288.800 C 295.386 290.340,295.550 290.970,295.751 290.200 C 295.953 289.430,295.953 288.170,295.751 287.400 C 295.550 286.630,295.386 287.260,295.386 288.800 M75.200 291.553 C 75.200 292.627,75.560 293.728,76.000 294.000 C 76.467 294.288,76.800 293.475,76.800 292.047 C 76.800 290.701,76.440 289.600,76.000 289.600 C 75.560 289.600,75.200 290.479,75.200 291.553 M236.160 296.160 C 234.924 297.396,234.939 298.787,236.200 299.834 C 236.967 300.470,237.200 300.027,237.200 297.932 C 237.200 296.429,237.182 295.200,237.160 295.200 C 237.138 295.200,236.688 295.632,236.160 296.160 M61.763 306.364 C 62.867 308.131,63.644 307.911,62.924 306.035 C 62.663 305.356,62.076 304.800,61.618 304.800 C 61.092 304.800,61.145 305.374,61.763 306.364 M166.388 311.237 C 165.295 312.077,164.760 312.761,165.200 312.757 C 166.258 312.747,169.182 310.515,168.730 310.063 C 168.535 309.869,167.481 310.397,166.388 311.237 M247.200 310.189 C 247.200 310.968,250.428 313.038,250.903 312.564 C 251.094 312.373,250.339 311.620,249.225 310.890 C 248.111 310.160,247.200 309.845,247.200 310.189 M43.200 313.933 C 43.200 314.777,45.610 317.057,46.043 316.624 C 46.245 316.422,45.688 315.603,44.805 314.804 C 43.922 314.006,43.200 313.614,43.200 313.933 M177.845 315.829 C 178.590 316.652,179.200 317.748,179.200 318.263 C 179.200 318.778,179.766 319.200,180.457 319.200 C 181.600 319.200,181.600 319.086,180.457 317.943 C 179.766 317.251,179.200 316.390,179.200 316.028 C 179.200 315.667,178.590 315.137,177.845 314.851 C 176.571 314.362,176.571 314.421,177.845 315.829 M295.200 316.581 C 295.200 317.487,295.748 318.439,296.419 318.696 C 297.443 319.089,297.489 318.880,296.710 317.382 C 295.383 314.831,295.200 314.734,295.200 316.581 M131.200 332.000 C 131.200 332.440,130.660 332.800,130.000 332.800 C 129.340 332.800,128.800 333.338,128.800 333.995 C 128.800 334.909,129.269 334.782,130.800 333.450 C 133.006 331.532,133.183 331.200,132.000 331.200 C 131.560 331.200,131.200 331.560,131.200 332.000 M206.063 332.844 C 205.218 333.696,204.768 334.635,205.063 334.930 C 205.359 335.225,205.600 335.071,205.600 334.587 C 205.600 334.104,206.320 333.479,207.200 333.200 C 208.080 332.921,208.800 332.356,208.800 331.946 C 208.800 330.796,207.755 331.139,206.063 332.844 M177.333 333.333 C 176.370 334.297,176.776 337.384,178.000 338.400 C 179.434 339.590,179.622 338.342,178.220 336.940 C 177.447 336.167,177.448 335.627,178.227 334.380 C 179.151 332.901,178.513 332.154,177.333 333.333 M253.600 335.553 C 253.600 336.627,253.960 337.728,254.400 338.000 C 254.867 338.288,255.200 337.475,255.200 336.047 C 255.200 334.701,254.840 333.600,254.400 333.600 C 253.960 333.600,253.600 334.479,253.600 335.553 M188.788 343.703 C 188.274 347.829,188.890 350.585,190.422 351.002 C 191.253 351.228,191.319 351.122,190.645 350.642 C 190.120 350.268,189.580 347.810,189.445 345.181 C 189.219 340.766,189.169 340.653,188.788 343.703 M254.592 343.189 C 253.396 345.104,253.300 347.720,254.400 348.400 C 254.876 348.694,255.200 347.742,255.200 346.047 C 255.200 344.481,255.560 343.200,256.000 343.200 C 256.440 343.200,256.800 342.840,256.800 342.400 C 256.800 341.082,255.652 341.493,254.592 343.189 " stroke="none" fill="#000000" fill-rule="evenodd"></path><path id="path1" d="M122.720 304.400 C 122.721 311.000,122.845 313.594,122.995 310.163 C 123.146 306.733,123.145 301.333,122.993 298.163 C 122.842 294.994,122.719 297.800,122.720 304.400 " stroke="none" fill="#1a1a1a" fill-rule="evenodd"></path><path id="path2" d="M295.518 302.400 C 295.518 308.780,295.642 311.390,295.794 308.200 C 295.946 305.010,295.946 299.790,295.794 296.600 C 295.642 293.410,295.518 296.020,295.518 302.400 M113.118 304.800 C 113.118 311.180,113.242 313.790,113.394 310.600 C 113.546 307.410,113.546 302.190,113.394 299.000 C 113.242 295.810,113.118 298.420,113.118 304.800 M197.111 305.200 C 197.112 310.920,197.240 313.155,197.394 310.167 C 197.548 307.178,197.547 302.498,197.391 299.767 C 197.236 297.035,197.109 299.480,197.111 305.200 M66.298 317.800 C 66.903 318.572,68.339 319.151,69.498 319.091 L 71.600 318.982 69.600 318.614 C 68.500 318.412,67.060 317.831,66.400 317.323 C 65.356 316.520,65.343 316.582,66.298 317.800 M265.018 340.000 C 265.018 341.980,265.174 342.790,265.365 341.800 C 265.555 340.810,265.555 339.190,265.365 338.200 C 265.174 337.210,265.018 338.020,265.018 340.000 M195.990 343.364 C 195.775 346.313,195.890 348.436,196.243 348.080 C 196.597 347.724,196.773 345.311,196.633 342.717 L 196.380 338.000 195.990 343.364 M181.040 344.800 C 181.040 347.220,181.190 348.210,181.373 347.000 C 181.556 345.790,181.556 343.810,181.373 342.600 C 181.190 341.390,181.040 342.380,181.040 344.800 " stroke="none" fill="#2b2b2b" fill-rule="evenodd"></path><path id="path3" d="M166.987 244.200 C 166.492 245.489,170.892 245.428,172.192 244.128 C 172.896 243.424,172.426 243.200,170.246 243.200 C 168.665 243.200,167.198 243.650,166.987 244.200 M178.268 249.179 C 178.560 250.274,179.070 251.176,179.400 251.185 C 181.311 251.233,181.600 251.117,181.600 250.302 C 181.600 249.682,181.229 249.712,180.400 250.400 C 179.399 251.231,179.200 251.122,179.200 249.745 C 179.200 248.837,178.870 247.891,178.468 247.642 C 178.049 247.383,177.964 248.042,178.268 249.179 M95.207 254.379 C 94.334 254.931,94.251 255.371,94.900 256.020 C 95.548 256.668,95.902 256.462,96.218 255.253 C 96.456 254.344,96.594 253.606,96.525 253.612 C 96.456 253.619,95.863 253.964,95.207 254.379 M87.200 255.021 C 87.200 255.363,88.640 255.505,90.400 255.337 C 92.160 255.169,93.600 254.890,93.600 254.716 C 93.600 254.542,92.160 254.400,90.400 254.400 C 88.640 254.400,87.200 254.680,87.200 255.021 M75.758 257.915 C 75.430 258.747,75.351 259.617,75.581 259.848 C 76.311 260.577,76.953 259.382,76.647 257.863 C 76.367 256.470,76.324 256.473,75.758 257.915 M84.590 257.353 C 83.815 257.556,83.386 258.054,83.637 258.461 C 84.322 259.568,85.370 259.353,85.889 258.000 C 86.143 257.340,86.271 256.842,86.175 256.893 C 86.079 256.944,85.366 257.151,84.590 257.353 M76.258 270.128 C 77.670 271.799,77.670 271.883,76.258 272.703 C 75.456 273.170,75.160 273.551,75.600 273.550 C 76.885 273.548,79.535 271.268,78.942 270.675 C 78.644 270.377,78.400 270.429,78.400 270.791 C 78.400 271.152,77.590 270.762,76.600 269.924 L 74.800 268.400 76.258 270.128 M348.005 271.772 C 348.008 272.117,349.145 273.046,350.533 273.836 C 352.620 275.024,352.873 275.051,351.994 273.993 C 350.683 272.413,347.998 270.918,348.005 271.772 M272.489 277.176 C 271.476 278.723,271.439 279.058,272.319 278.721 C 272.937 278.483,273.624 277.594,273.846 276.745 C 274.383 274.691,274.048 274.797,272.489 277.176 M352.176 285.605 C 352.079 291.108,351.665 296.778,351.256 298.205 C 350.785 299.849,350.794 300.800,351.281 300.800 C 352.664 300.800,352.849 298.882,352.599 287.163 L 352.352 275.600 352.176 285.605 M168.800 277.502 C 168.800 277.996,169.134 278.400,169.541 278.400 C 169.949 278.400,170.447 279.030,170.649 279.800 C 170.957 280.981,171.029 280.996,171.107 279.898 C 171.158 279.182,170.660 278.148,170.000 277.600 C 169.171 276.912,168.800 276.882,168.800 277.502 M308.986 280.000 C 308.986 281.540,309.150 282.170,309.351 281.400 C 309.553 280.630,309.553 279.370,309.351 278.600 C 309.150 277.830,308.986 278.460,308.986 280.000 M202.239 283.938 C 201.018 285.364,201.018 285.512,202.237 285.980 C 202.960 286.258,203.305 286.238,203.004 285.937 C 202.703 285.636,202.816 284.717,203.256 283.895 C 204.283 281.977,203.904 281.993,202.239 283.938 M79.197 285.203 C 78.165 286.301,77.564 287.200,77.861 287.200 C 78.636 287.200,81.797 283.931,81.403 283.536 C 81.222 283.355,80.229 284.105,79.197 285.203 M295.688 286.000 C 296.346 288.942,296.804 289.580,296.788 287.533 C 296.781 286.690,296.410 285.460,295.963 284.800 C 295.370 283.924,295.296 284.247,295.688 286.000 M230.518 286.400 C 230.481 287.060,230.979 288.299,231.625 289.153 C 232.650 290.507,232.800 290.533,232.800 289.353 C 232.800 288.609,232.466 288.000,232.059 288.000 C 231.651 288.000,231.153 287.370,230.951 286.600 C 230.695 285.620,230.565 285.560,230.518 286.400 M104.332 300.800 C 104.332 308.940,104.451 312.270,104.596 308.200 C 104.741 304.130,104.741 297.470,104.596 293.400 C 104.451 289.330,104.332 292.660,104.332 300.800 M74.688 296.000 C 74.688 300.180,74.823 301.890,74.988 299.800 C 75.153 297.710,75.153 294.290,74.988 292.200 C 74.823 290.110,74.688 291.820,74.688 296.000 M257.099 298.800 C 257.101 303.640,257.233 305.517,257.392 302.971 C 257.551 300.425,257.550 296.465,257.389 294.171 C 257.228 291.877,257.097 293.960,257.099 298.800 M296.148 302.153 C 296.067 308.837,296.270 314.474,296.600 314.679 C 296.930 314.884,297.105 311.215,296.990 306.526 C 296.616 291.361,296.299 289.718,296.148 302.153 M206.722 303.200 C 206.722 310.020,206.845 312.810,206.995 309.400 C 207.145 305.990,207.145 300.410,206.995 297.000 C 206.845 293.590,206.722 296.380,206.722 303.200 M111.835 292.569 C 113.654 292.917,113.670 293.028,113.597 304.660 C 113.505 319.396,113.440 318.400,114.498 318.400 C 115.118 318.400,115.088 318.029,114.400 317.200 C 113.712 316.371,113.682 316.000,114.302 316.000 C 114.926 316.000,115.200 312.339,115.200 304.000 L 115.200 292.000 112.600 292.109 C 110.659 292.190,110.465 292.307,111.835 292.569 M139.508 302.400 C 139.508 307.900,139.636 310.150,139.792 307.400 C 139.949 304.650,139.949 300.150,139.792 297.400 C 139.636 294.650,139.508 296.900,139.508 302.400 M232.313 303.200 C 232.313 309.140,232.439 311.570,232.593 308.600 C 232.747 305.630,232.747 300.770,232.593 297.800 C 232.439 294.830,232.313 297.260,232.313 303.200 M354.339 305.064 C 356.377 307.309,356.816 307.585,356.775 306.600 C 356.761 306.270,355.771 305.309,354.575 304.464 L 352.400 302.928 354.339 305.064 M148.186 313.600 C 148.186 315.140,148.350 315.770,148.551 315.000 C 148.753 314.230,148.753 312.970,148.551 312.200 C 148.350 311.430,148.186 312.060,148.186 313.600 M334.533 313.986 C 331.302 315.766,330.840 316.768,333.886 315.388 C 335.489 314.661,336.800 313.782,336.800 313.433 C 336.800 312.697,336.929 312.665,334.533 313.986 M197.319 316.422 C 197.577 317.094,198.556 318.043,199.494 318.531 C 201.063 319.346,201.045 319.248,199.261 317.309 C 197.030 314.883,196.665 314.717,197.319 316.422 M266.054 332.740 C 265.287 333.588,264.830 334.938,265.037 335.740 C 265.356 336.973,265.429 336.935,265.507 335.498 C 265.656 332.774,267.755 331.463,269.865 332.777 C 271.446 333.761,271.503 333.739,270.502 332.529 C 269.064 330.788,267.765 330.850,266.054 332.740 M130.060 334.334 C 129.255 335.223,128.821 336.653,129.027 337.734 C 129.347 339.415,129.393 339.382,129.491 337.400 C 129.551 336.190,129.921 335.200,130.314 335.200 C 130.707 335.200,131.236 334.660,131.489 334.000 C 132.103 332.401,131.731 332.488,130.060 334.334 M205.056 340.800 C 205.056 343.660,205.201 344.830,205.379 343.400 C 205.556 341.970,205.556 339.630,205.379 338.200 C 205.201 336.770,205.056 337.940,205.056 340.800 M195.699 338.031 C 195.424 338.746,195.257 341.371,195.326 343.865 L 195.452 348.400 195.971 342.800 C 196.528 336.797,196.482 335.991,195.699 338.031 M256.705 340.975 C 257.073 343.196,257.186 343.309,257.438 341.708 C 257.602 340.667,257.406 339.486,257.003 339.083 C 256.559 338.639,256.441 339.385,256.705 340.975 M210.000 346.212 C 208.702 347.166,208.702 348.800,210.000 348.800 C 210.667 348.800,211.200 348.089,211.200 347.200 C 211.200 345.422,211.141 345.374,210.000 346.212 M144.000 348.800 C 144.000 349.240,143.460 349.600,142.800 349.600 C 142.140 349.600,141.600 349.973,141.600 350.428 C 141.600 350.990,142.115 350.981,143.200 350.400 C 144.624 349.638,145.443 348.000,144.400 348.000 C 144.180 348.000,144.000 348.360,144.000 348.800 M236.600 350.965 C 237.590 351.155,239.210 351.155,240.200 350.965 C 241.190 350.774,240.380 350.618,238.400 350.618 C 236.420 350.618,235.610 350.774,236.600 350.965 " stroke="none" fill="#333333" fill-rule="evenodd"></path><path id="path4" d="M205.099 147.600 C 205.101 152.440,205.233 154.317,205.392 151.771 C 205.551 149.225,205.550 145.265,205.389 142.971 C 205.228 140.677,205.097 142.760,205.099 147.600 M179.386 183.200 C 179.386 184.740,179.550 185.370,179.751 184.600 C 179.953 183.830,179.953 182.570,179.751 181.800 C 179.550 181.030,179.386 181.660,179.386 183.200 " stroke="none" fill="#ff0000" fill-rule="evenodd"></path><path id="path5" d="M153.182 131.200 C 153.182 167.940,153.280 182.970,153.400 164.600 C 153.520 146.230,153.520 116.170,153.400 97.800 C 153.280 79.430,153.182 94.460,153.182 131.200 " stroke="none" fill="#ff3300" fill-rule="evenodd"></path><path id="path6" d="M246.782 166.000 C 246.782 202.520,246.880 217.577,247.000 199.460 C 247.120 181.343,247.120 151.463,247.000 133.060 C 246.880 114.657,246.782 129.480,246.782 166.000 M231.526 113.600 C 231.526 120.860,231.647 123.830,231.795 120.200 C 231.943 116.570,231.943 110.630,231.795 107.000 C 231.647 103.370,231.526 106.340,231.526 113.600 M191.200 159.654 C 193.927 160.263,200.000 160.368,200.000 159.806 C 200.000 159.473,197.750 159.242,195.000 159.293 C 192.250 159.344,190.540 159.506,191.200 159.654 M179.200 175.200 C 179.200 178.427,179.351 180.916,179.535 180.731 C 180.120 180.147,180.302 170.435,179.739 169.872 C 179.443 169.576,179.200 171.973,179.200 175.200 " stroke="none" fill="#ff4900" fill-rule="evenodd"></path><path id="path7" d="M226.400 79.972 C 226.400 80.396,227.210 81.169,228.200 81.688 C 229.990 82.628,229.992 82.624,228.476 80.916 C 226.783 79.010,226.400 78.835,226.400 79.972 M210.400 82.000 C 210.948 82.660,211.982 83.158,212.698 83.107 C 213.796 83.029,213.781 82.957,212.600 82.649 C 211.830 82.447,211.200 81.949,211.200 81.541 C 211.200 81.134,210.796 80.800,210.302 80.800 C 209.682 80.800,209.712 81.171,210.400 82.000 M231.824 108.293 C 231.973 116.712,232.233 123.960,232.402 124.400 C 232.571 124.840,232.698 118.781,232.685 110.936 C 232.671 103.092,232.872 96.462,233.130 96.203 C 233.951 95.383,233.637 93.786,232.576 93.378 C 231.761 93.065,231.608 96.100,231.824 108.293 M190.600 160.583 C 192.250 160.755,194.950 160.755,196.600 160.583 C 198.250 160.410,196.900 160.269,193.600 160.269 C 190.300 160.269,188.950 160.410,190.600 160.583 M199.000 170.986 C 200.870 171.154,203.930 171.154,205.800 170.986 C 207.670 170.817,206.140 170.680,202.400 170.680 C 198.660 170.680,197.130 170.817,199.000 170.986 M180.263 176.400 C 180.266 179.480,180.411 180.642,180.584 178.982 C 180.757 177.322,180.754 174.802,180.577 173.382 C 180.401 171.962,180.259 173.320,180.263 176.400 M232.000 183.939 C 233.067 184.704,233.067 184.896,232.000 185.661 C 230.933 186.426,230.933 186.485,232.000 186.194 C 232.660 186.014,233.200 185.387,233.200 184.800 C 233.200 184.213,232.660 183.586,232.000 183.406 C 230.933 183.115,230.933 183.174,232.000 183.939 M164.714 189.038 C 165.066 189.388,168.020 189.565,171.278 189.430 L 177.200 189.185 170.636 188.793 C 167.026 188.577,164.361 188.687,164.714 189.038 M170.946 198.921 C 170.366 199.500,172.746 201.548,174.000 201.550 C 174.440 201.551,174.080 201.119,173.200 200.590 C 171.717 199.698,171.804 199.591,174.400 199.119 L 177.200 198.611 174.333 198.505 C 172.757 198.447,171.232 198.634,170.946 198.921 " stroke="none" fill="#ff5500" fill-rule="evenodd"></path><path id="path8" d="M165.278 49.426 C 163.556 49.809,162.339 50.683,159.311 53.711 C 155.868 57.153,155.200 58.228,155.200 60.319 C 155.200 61.412,154.833 62.532,154.384 62.810 C 153.296 63.482,153.345 198.948,154.433 199.620 C 154.855 199.881,155.200 200.988,155.200 202.081 C 155.200 203.173,155.921 204.840,156.801 205.786 C 158.015 207.088,158.160 207.658,157.401 208.140 C 156.688 208.592,156.808 208.779,157.816 208.788 C 158.595 208.794,160.575 209.636,162.216 210.658 C 163.857 211.681,165.830 212.749,166.600 213.033 C 167.370 213.317,168.000 213.942,168.000 214.422 C 168.000 214.902,168.292 215.114,168.650 214.893 C 169.007 214.672,170.357 215.194,171.650 216.053 C 172.942 216.912,175.620 218.397,177.600 219.353 C 179.580 220.308,181.380 221.294,181.601 221.545 C 182.395 222.448,187.355 224.800,188.465 224.800 C 189.089 224.800,189.600 225.103,189.600 225.474 C 189.600 225.845,190.950 226.835,192.600 227.674 C 194.250 228.513,195.780 229.383,196.000 229.608 C 196.220 229.832,197.840 230.732,199.600 231.608 C 201.360 232.483,202.920 233.470,203.067 233.800 C 203.213 234.130,203.979 234.400,204.769 234.400 C 205.558 234.400,206.652 234.940,207.200 235.600 C 207.748 236.260,208.872 236.800,209.698 236.800 C 210.524 236.800,211.200 237.128,211.200 237.529 C 211.200 238.163,212.912 239.181,220.040 242.790 C 220.898 243.224,221.600 243.854,221.600 244.190 C 221.600 244.525,222.521 244.800,223.647 244.800 C 224.773 244.800,225.483 245.142,225.225 245.560 C 224.584 246.596,229.809 247.490,233.564 246.986 C 239.079 246.247,244.800 241.038,244.800 236.756 C 244.800 235.952,245.152 235.077,245.582 234.811 C 246.678 234.134,246.704 98.682,245.609 98.005 C 245.164 97.730,244.800 96.447,244.800 95.153 C 244.800 93.859,244.440 92.800,244.000 92.800 C 243.560 92.800,243.200 92.249,243.200 91.575 C 243.200 90.901,242.660 90.143,242.000 89.889 C 241.340 89.636,240.800 88.927,240.800 88.314 C 240.800 87.701,240.260 87.200,239.600 87.200 C 238.940 87.200,238.400 86.840,238.400 86.400 C 238.400 85.960,237.669 85.600,236.775 85.600 C 235.881 85.600,234.943 85.060,234.689 84.400 C 234.436 83.740,233.569 83.200,232.762 83.200 C 231.955 83.200,231.068 82.834,230.792 82.387 C 230.516 81.940,229.967 81.773,229.574 82.016 C 229.180 82.259,228.125 81.725,227.229 80.829 C 226.333 79.933,225.201 79.200,224.714 79.200 C 224.227 79.200,224.043 78.641,224.305 77.958 C 224.576 77.254,224.443 76.926,224.000 77.200 C 223.237 77.672,217.596 75.426,216.800 74.334 C 216.437 73.836,214.595 72.857,205.426 68.283 C 203.790 67.467,202.440 66.329,202.426 65.753 C 202.412 65.177,202.024 64.938,201.565 65.222 C 201.105 65.506,199.858 65.167,198.793 64.469 C 197.728 63.771,196.304 63.200,195.628 63.200 C 194.953 63.200,194.400 62.840,194.400 62.400 C 194.400 61.960,193.899 61.600,193.286 61.600 C 192.673 61.600,191.964 61.060,191.711 60.400 C 191.457 59.740,190.540 59.200,189.672 59.200 C 188.804 59.200,187.878 58.850,187.613 58.421 C 187.349 57.993,185.797 57.017,184.166 56.252 C 182.535 55.487,180.708 54.381,180.107 53.795 C 179.506 53.208,178.619 52.860,178.136 53.021 C 177.653 53.182,176.514 52.511,175.605 51.530 C 173.961 49.756,168.657 48.676,165.278 49.426 M177.235 63.696 C 178.316 64.405,179.200 64.753,179.200 64.471 C 179.200 63.656,184.332 66.501,185.040 67.708 C 185.392 68.309,186.382 68.800,187.240 68.800 C 188.098 68.800,188.800 69.099,188.800 69.463 C 188.800 69.828,191.140 71.303,194.000 72.740 C 196.860 74.177,199.401 75.679,199.647 76.076 C 199.893 76.474,200.793 76.800,201.647 76.800 C 202.501 76.800,203.200 77.121,203.200 77.513 C 203.200 77.906,204.100 78.452,205.200 78.729 C 206.300 79.005,207.200 79.584,207.200 80.015 C 207.200 80.447,208.100 80.800,209.200 80.800 C 210.300 80.800,211.200 81.160,211.200 81.600 C 211.200 82.040,211.740 82.400,212.400 82.400 C 213.060 82.400,213.600 82.781,213.600 83.247 C 213.600 83.713,213.960 83.872,214.400 83.600 C 214.840 83.328,215.200 83.487,215.200 83.953 C 215.200 84.419,215.761 84.800,216.447 84.800 C 217.133 84.800,217.472 85.160,217.200 85.600 C 216.928 86.040,217.301 86.400,218.029 86.400 C 219.224 86.400,223.805 88.578,224.800 89.618 C 225.858 90.726,229.430 92.603,231.400 93.089 C 233.408 93.583,234.259 95.075,233.160 96.174 C 232.917 96.416,232.724 103.406,232.730 111.707 C 232.738 121.774,232.420 127.533,231.775 129.000 L 230.809 131.200 221.777 131.200 C 214.877 131.200,212.286 131.500,210.807 132.469 C 209.742 133.167,208.572 133.553,208.207 133.328 C 207.842 133.102,207.503 133.521,207.455 134.259 C 207.407 134.996,207.092 136.500,206.755 137.600 C 206.419 138.700,206.111 143.290,206.072 147.800 C 206.032 152.310,205.730 156.000,205.400 156.000 C 205.070 156.000,204.800 156.381,204.800 156.847 C 204.800 157.313,205.160 157.472,205.600 157.200 C 206.040 156.928,206.400 156.912,206.400 157.165 C 206.400 159.238,200.741 160.794,193.192 160.797 C 181.454 160.801,180.800 161.523,180.800 174.472 C 180.800 184.046,179.513 189.582,177.566 188.379 C 177.145 188.119,176.800 188.302,176.800 188.786 C 176.800 189.370,174.774 189.588,170.794 189.434 C 167.491 189.305,164.791 188.930,164.794 188.600 C 164.797 188.270,164.800 160.363,164.800 126.585 L 164.800 65.171 166.872 63.914 C 169.661 62.221,174.818 62.113,177.235 63.696 M232.000 142.000 C 232.000 142.660,231.490 143.200,230.867 143.200 C 230.243 143.200,229.570 143.650,229.371 144.200 C 229.081 145.000,228.670 145.000,227.315 144.200 C 226.384 143.650,224.897 143.200,224.011 143.200 C 223.125 143.200,222.400 142.866,222.400 142.459 C 222.400 142.051,221.770 141.553,221.000 141.351 C 220.230 141.150,222.390 140.944,225.800 140.893 C 230.819 140.818,232.000 141.029,232.000 142.000 M209.600 171.600 C 210.148 172.260,211.452 172.800,212.498 172.800 C 213.544 172.800,214.400 173.160,214.400 173.600 C 214.400 174.040,214.896 174.400,215.502 174.400 C 216.108 174.400,217.052 174.940,217.600 175.600 C 218.148 176.260,219.272 176.800,220.098 176.800 C 220.924 176.800,221.600 177.096,221.600 177.458 C 221.600 177.820,223.212 178.921,225.182 179.905 C 227.152 180.889,228.973 182.033,229.229 182.447 C 229.485 182.861,230.372 183.200,231.200 183.200 C 233.402 183.200,234.073 184.876,232.369 186.121 C 229.596 188.149,220.800 186.406,220.800 183.828 C 220.800 183.482,219.900 183.200,218.800 183.200 C 217.522 183.200,216.800 182.750,216.800 181.953 C 216.800 181.267,216.417 180.942,215.950 181.231 C 215.482 181.520,214.492 181.219,213.750 180.561 C 213.007 179.903,211.680 179.217,210.800 179.035 C 209.920 178.854,209.286 178.289,209.390 177.781 C 209.497 177.265,209.058 177.058,208.397 177.312 C 207.727 177.569,207.000 177.210,206.721 176.483 C 206.450 175.777,205.367 175.200,204.314 175.200 C 203.261 175.200,202.400 174.857,202.400 174.438 C 202.400 173.757,199.290 172.055,196.000 170.935 C 195.340 170.710,197.906 170.498,201.702 170.463 C 206.920 170.415,208.847 170.693,209.600 171.600 M184.065 200.487 C 184.761 201.101,185.536 201.397,185.789 201.144 C 186.440 200.493,189.603 203.347,189.112 204.143 C 188.888 204.504,189.777 204.800,191.086 204.800 C 192.395 204.800,193.587 205.070,193.733 205.400 C 194.120 206.269,199.130 208.800,200.465 208.800 C 201.089 208.800,201.600 209.102,201.600 209.471 C 201.600 209.841,203.036 210.831,204.791 211.671 C 206.546 212.512,207.986 213.470,207.991 213.800 C 207.996 214.130,208.496 214.400,209.102 214.400 C 209.708 214.400,210.652 214.940,211.200 215.600 C 211.748 216.260,212.872 216.800,213.698 216.800 C 214.524 216.800,215.200 217.160,215.200 217.600 C 215.200 218.040,215.876 218.400,216.702 218.400 C 217.528 218.400,218.652 218.940,219.200 219.600 C 219.748 220.260,220.872 220.800,221.698 220.800 C 222.524 220.800,223.200 221.102,223.200 221.471 C 223.200 221.841,224.636 222.831,226.391 223.671 C 230.308 225.548,230.470 226.859,226.868 227.534 C 223.399 228.185,219.373 227.488,217.860 225.974 C 217.214 225.328,216.171 224.800,215.543 224.800 C 214.914 224.800,214.400 224.440,214.400 224.000 C 214.400 223.560,213.904 223.200,213.298 223.200 C 212.692 223.200,211.748 222.660,211.200 222.000 C 210.652 221.340,209.507 220.800,208.655 220.800 C 207.803 220.800,207.328 220.440,207.600 220.000 C 207.872 219.560,207.374 219.200,206.494 219.200 C 205.614 219.200,204.672 218.840,204.400 218.400 C 204.128 217.960,203.245 217.600,202.438 217.600 C 201.631 217.600,200.764 217.060,200.511 216.400 C 200.257 215.740,199.319 215.200,198.425 215.200 C 197.531 215.200,196.800 214.901,196.800 214.537 C 196.800 213.782,187.206 208.800,185.752 208.800 C 185.228 208.800,184.800 208.440,184.800 208.000 C 184.800 207.560,184.260 207.200,183.600 207.200 C 182.940 207.200,182.398 206.930,182.395 206.600 C 182.388 205.795,177.763 203.200,176.335 203.200 C 175.711 203.200,175.200 202.928,175.200 202.595 C 175.200 202.263,174.118 201.512,172.795 200.926 C 171.473 200.341,170.614 199.501,170.887 199.059 C 171.592 197.919,182.494 199.101,184.065 200.487 " stroke="none" fill="#fd6523" fill-rule="evenodd"></path><path id="path9" d="M94.857 244.457 C 94.166 245.149,93.600 246.049,93.600 246.457 C 93.600 246.867,89.861 247.200,85.265 247.200 C 73.149 247.200,69.193 249.969,69.264 258.398 C 69.301 262.810,72.007 268.684,74.041 268.766 C 75.312 268.817,79.187 270.729,79.194 271.309 C 79.197 271.589,77.861 272.453,76.225 273.229 C 72.688 274.908,67.200 280.556,67.200 282.517 C 67.200 283.281,66.831 284.134,66.379 284.413 C 64.831 285.369,65.465 316.117,67.057 317.328 C 69.943 319.522,72.991 318.566,76.800 314.272 C 78.780 312.040,82.290 308.260,84.600 305.872 C 86.910 303.484,88.800 301.327,88.800 301.080 C 88.800 300.833,89.700 299.922,90.800 299.057 C 91.900 298.192,92.800 296.970,92.800 296.342 C 92.800 295.714,93.188 295.200,93.661 295.200 C 95.919 295.200,93.767 287.278,90.800 284.663 C 83.973 278.647,72.227 290.741,78.654 297.168 C 79.935 298.449,79.909 298.663,78.207 300.820 C 74.857 305.067,74.318 304.077,74.485 293.986 C 74.645 284.349,75.931 280.800,79.265 280.800 C 79.933 280.800,80.870 280.410,81.347 279.933 C 81.823 279.457,83.955 279.067,86.084 279.067 C 88.214 279.067,90.086 279.457,90.244 279.933 C 90.403 280.410,91.043 280.800,91.667 280.800 C 92.290 280.800,92.800 281.160,92.800 281.600 C 92.800 282.040,93.340 282.400,94.000 282.400 C 95.028 282.400,95.200 284.761,95.200 298.853 C 95.200 316.858,95.518 318.400,99.228 318.400 C 104.204 318.400,104.454 317.400,103.922 299.600 C 103.659 290.800,103.148 282.719,102.787 281.642 C 101.946 279.132,98.454 275.200,97.068 275.200 C 96.480 275.200,96.000 274.918,96.000 274.572 C 96.000 274.227,94.892 273.290,93.537 272.490 L 91.074 271.035 93.337 269.871 C 95.959 268.521,99.200 265.015,99.200 263.528 C 99.200 256.688,90.349 252.361,86.463 257.302 C 85.117 259.013,84.592 259.223,83.641 258.434 C 82.698 257.652,81.962 257.850,79.836 259.458 C 77.578 261.166,77.051 261.289,76.159 260.316 C 73.388 257.292,77.975 254.996,87.454 254.663 C 97.482 254.310,101.069 252.319,100.683 247.318 C 100.362 243.155,97.543 241.771,94.857 244.457 M172.092 244.289 C 171.676 244.790,169.883 245.172,168.106 245.138 C 166.330 245.104,165.052 245.361,165.267 245.709 C 166.163 247.157,162.354 249.600,159.200 249.600 C 157.440 249.600,156.000 249.960,156.000 250.400 C 156.000 250.840,155.349 251.200,154.554 251.200 C 152.070 251.200,143.023 260.325,143.334 262.518 C 143.590 264.332,143.888 264.408,151.572 264.631 C 155.957 264.758,159.737 265.168,159.972 265.542 C 160.207 265.916,162.175 266.461,164.344 266.753 C 166.514 267.045,168.590 267.470,168.958 267.697 C 169.325 267.925,170.478 268.265,171.519 268.454 C 172.560 268.643,174.441 269.331,175.700 269.985 C 177.783 271.065,178.037 271.047,178.522 269.786 C 178.816 269.024,179.178 276.560,179.328 286.533 C 179.629 306.616,180.053 305.440,174.401 300.207 C 170.343 296.450,169.142 296.737,162.719 303.000 C 161.703 303.990,160.766 304.801,160.636 304.802 C 160.506 304.803,160.514 301.203,160.653 296.802 C 160.845 290.735,161.168 288.800,161.988 288.800 C 164.032 288.800,168.045 285.999,168.495 284.258 C 168.742 283.300,169.424 282.332,170.010 282.107 C 171.160 281.666,170.716 278.400,169.507 278.400 C 169.118 278.400,168.800 277.712,168.800 276.871 C 168.800 271.033,153.728 269.378,153.580 275.200 C 153.563 275.860,153.057 277.048,152.457 277.841 C 150.300 280.684,150.700 314.672,152.915 316.735 C 156.042 319.649,158.015 318.906,164.350 312.425 L 170.191 306.450 174.237 310.391 C 176.462 312.559,178.579 314.798,178.941 315.366 C 180.948 318.515,185.728 319.230,187.535 316.650 C 189.681 313.586,189.346 252.823,187.172 250.962 C 185.204 249.277,182.673 249.213,181.078 250.807 C 179.665 252.221,178.400 251.698,178.400 249.700 C 178.400 247.685,173.069 243.112,172.092 244.289 M179.200 258.098 C 179.200 262.005,179.042 262.465,178.000 261.600 C 176.538 260.386,176.477 258.614,177.800 255.766 C 179.151 252.858,179.200 252.940,179.200 258.098 M165.889 258.000 C 166.365 259.241,164.430 259.743,163.703 258.567 C 163.488 258.219,161.951 257.843,160.286 257.731 C 155.578 257.414,156.036 256.800,160.981 256.800 C 164.197 256.800,165.556 257.132,165.889 258.000 M44.152 272.217 C 42.200 274.569,42.930 312.486,44.964 314.381 C 48.572 317.743,56.000 319.909,56.000 317.600 C 56.000 317.160,56.720 316.800,57.600 316.800 C 58.489 316.800,59.200 316.267,59.200 315.600 C 59.200 314.940,59.481 314.400,59.825 314.400 C 64.279 314.400,60.508 302.191,55.666 300.938 L 53.200 300.300 52.989 286.750 C 52.808 275.160,52.584 273.055,51.436 272.200 C 49.695 270.902,45.234 270.913,44.152 272.217 M119.093 273.453 C 114.294 276.232,111.200 278.788,111.200 279.972 C 111.200 280.490,110.657 281.458,109.993 282.122 C 109.329 282.786,108.985 283.653,109.230 284.048 C 109.474 284.443,109.310 285.447,108.865 286.278 C 108.420 287.110,108.314 288.047,108.628 288.361 C 108.943 288.676,109.245 289.263,109.300 289.667 C 109.355 290.070,109.445 290.760,109.500 291.200 C 109.555 291.640,110.860 292.000,112.400 292.000 L 115.200 292.000 115.200 304.000 C 115.200 312.339,114.926 316.000,114.302 316.000 C 113.650 316.000,113.657 316.305,114.328 317.113 C 115.647 318.702,119.835 319.183,120.364 317.806 C 120.597 317.197,121.125 316.906,121.536 317.160 C 122.739 317.904,122.611 297.625,121.404 296.133 C 120.606 295.147,120.605 295.016,121.400 295.494 C 122.067 295.894,122.400 295.562,122.400 294.494 C 122.400 293.614,122.040 292.672,121.600 292.400 C 121.160 292.128,120.800 290.995,120.800 289.881 C 120.800 288.768,120.053 287.252,119.140 286.512 L 117.480 285.168 119.198 282.984 C 120.143 281.783,121.610 280.800,122.458 280.800 C 123.306 280.800,124.000 280.476,124.000 280.081 C 124.000 278.904,131.209 278.647,132.157 279.790 C 132.619 280.345,133.438 280.800,133.978 280.800 C 138.122 280.800,139.897 287.815,139.772 303.695 C 139.660 317.922,141.955 322.160,147.026 317.088 C 148.408 315.707,149.052 295.452,147.888 290.000 C 147.606 288.680,147.122 286.281,146.812 284.669 C 146.502 283.057,145.611 281.055,144.832 280.219 C 144.054 279.383,143.043 278.002,142.587 277.149 C 139.538 271.453,126.177 269.351,119.093 273.453 M204.600 272.527 C 202.950 273.211,201.600 274.093,201.600 274.486 C 201.600 274.879,201.120 275.200,200.532 275.200 C 199.439 275.200,196.311 278.463,194.698 281.286 C 194.202 282.154,193.538 284.742,193.222 287.037 L 192.649 291.210 195.124 291.705 L 197.600 292.200 197.600 303.976 C 197.600 314.368,197.772 315.908,199.063 317.076 C 200.892 318.732,203.735 318.779,205.333 317.181 C 208.322 314.192,205.990 284.077,202.871 285.400 C 200.966 286.209,201.059 285.218,203.077 283.200 C 204.397 281.880,206.023 280.800,206.691 280.800 C 207.359 280.800,208.128 280.440,208.400 280.000 C 209.140 278.803,214.625 279.036,217.318 280.379 C 222.961 283.194,223.070 283.568,223.271 300.800 C 223.469 317.709,223.637 318.334,228.000 318.362 C 232.055 318.389,232.164 317.995,232.164 303.283 C 232.164 294.433,231.850 289.183,231.279 288.495 C 230.792 287.909,230.609 286.356,230.871 285.045 C 231.196 283.422,230.942 282.256,230.074 281.388 C 229.373 280.688,228.788 279.819,228.773 279.457 C 228.719 278.109,225.904 275.509,223.034 274.156 C 221.403 273.386,219.851 272.407,219.587 271.979 C 218.823 270.743,207.941 271.141,204.600 272.527 M251.575 272.627 C 244.692 278.446,247.475 288.800,255.923 288.800 C 257.529 288.800,257.600 289.192,257.600 298.063 L 257.600 307.327 254.483 304.263 C 242.827 292.808,241.133 291.813,238.714 295.000 C 236.520 297.889,237.453 300.203,242.503 304.400 C 245.150 306.600,248.099 309.061,249.058 309.868 C 250.016 310.676,251.787 312.116,252.993 313.068 C 254.199 314.021,255.189 315.208,255.193 315.707 C 255.200 316.593,256.766 317.331,260.800 318.349 C 264.525 319.289,264.747 318.034,264.775 295.871 L 264.800 275.342 262.339 273.271 C 259.384 270.785,254.127 270.470,251.575 272.627 M280.353 272.375 C 279.499 273.021,278.354 273.561,277.809 273.575 C 276.414 273.610,273.600 276.153,273.600 277.378 C 273.600 277.940,273.266 278.400,272.859 278.400 C 271.644 278.400,269.600 283.244,269.600 286.123 C 269.600 290.727,277.715 289.888,278.524 285.200 C 279.449 279.838,287.295 277.129,292.336 280.431 C 293.321 281.077,294.369 281.424,294.664 281.203 C 294.959 280.981,295.034 281.026,294.832 281.301 C 294.629 281.577,294.976 282.794,295.602 284.005 C 296.456 285.656,296.765 289.932,296.835 301.096 C 296.887 309.365,297.262 316.191,297.678 316.448 C 298.089 316.702,298.200 317.277,297.923 317.725 C 297.289 318.751,302.380 318.396,303.837 317.313 C 305.453 316.113,305.074 283.675,303.407 280.400 C 300.339 274.374,295.375 271.200,289.017 271.200 C 284.903 271.200,283.196 271.493,283.188 272.200 C 283.178 273.000,283.048 273.000,282.541 272.200 C 282.042 271.415,281.572 271.452,280.353 272.375 M313.000 272.755 C 312.010 273.581,311.200 274.649,311.200 275.128 C 311.200 275.608,310.840 276.000,310.400 276.000 C 309.960 276.000,309.600 277.800,309.600 280.000 C 309.600 282.200,309.960 284.000,310.400 284.000 C 310.840 284.000,311.200 284.531,311.200 285.179 C 311.200 286.546,315.160 288.800,317.560 288.800 C 318.991 288.800,320.333 311.227,319.295 317.800 C 319.151 318.708,326.232 318.519,326.800 317.600 C 327.072 317.160,328.152 316.800,329.200 316.800 C 330.248 316.800,331.314 316.463,331.569 316.051 C 332.949 313.817,339.200 312.023,339.200 313.861 C 339.200 319.543,353.333 320.148,355.614 314.563 C 357.407 310.172,356.997 307.993,353.709 304.425 C 350.778 301.246,350.545 300.685,351.200 298.400 C 352.966 292.241,352.330 274.945,350.288 273.637 C 349.250 272.971,348.161 272.089,347.868 271.677 C 347.560 271.241,346.454 271.505,345.233 272.305 L 343.130 273.683 343.202 285.841 C 343.299 302.260,343.347 301.600,342.067 301.600 C 341.443 301.600,340.808 301.976,340.655 302.434 C 340.502 302.893,339.302 303.396,337.989 303.552 C 336.675 303.708,335.690 304.232,335.800 304.718 C 335.912 305.212,334.924 305.600,333.553 305.600 C 332.125 305.600,331.312 305.933,331.600 306.400 C 331.872 306.840,331.374 307.200,330.494 307.200 C 329.614 307.200,328.672 307.560,328.400 308.000 C 327.070 310.153,326.814 307.671,326.975 294.193 C 327.175 277.602,327.105 277.129,323.980 273.707 C 321.214 270.679,316.028 270.229,313.000 272.755 M131.768 333.620 C 129.776 335.711,129.511 336.633,129.303 342.182 C 128.979 350.827,131.522 353.201,135.319 347.800 C 137.672 344.454,139.178 342.913,139.285 343.743 C 139.332 344.104,139.450 344.940,139.548 345.600 C 139.646 346.260,139.788 347.634,139.863 348.654 C 139.977 350.191,140.308 350.412,141.800 349.946 C 144.411 349.131,144.774 348.198,144.788 342.269 C 144.809 332.842,137.276 327.838,131.768 333.620 M156.152 333.695 C 153.021 336.756,153.299 342.861,156.447 340.193 C 156.832 339.867,156.770 340.140,156.310 340.800 C 154.825 342.928,155.018 347.818,156.650 349.450 C 158.102 350.902,165.983 351.247,168.081 349.950 C 169.977 348.778,168.884 335.516,166.800 334.400 C 165.700 333.811,164.800 332.850,164.800 332.265 C 164.800 330.029,158.904 331.004,156.152 333.695 M181.462 331.740 C 179.152 332.350,178.203 336.554,179.997 338.225 C 181.121 339.272,181.577 340.983,181.757 344.820 C 182.059 351.267,185.778 353.328,186.845 347.640 C 187.140 346.068,187.701 344.585,188.091 344.344 C 188.481 344.103,188.800 343.207,188.800 342.353 C 188.800 341.499,189.116 340.800,189.502 340.800 C 189.888 340.800,190.027 342.362,189.812 344.271 C 189.442 347.556,192.704 352.363,194.252 350.815 C 195.365 349.701,195.752 336.308,194.729 334.297 C 192.739 330.385,189.184 330.138,187.593 333.800 C 186.971 335.230,186.449 335.826,186.431 335.124 C 186.403 333.955,183.927 331.075,183.137 331.293 C 182.952 331.344,182.198 331.545,181.462 331.740 M208.033 333.448 C 205.823 335.560,205.668 336.119,205.480 342.648 C 205.261 350.254,205.769 351.427,208.781 350.275 C 209.870 349.859,210.410 349.266,209.981 348.959 C 208.368 347.804,208.978 346.595,212.041 344.873 L 215.200 343.098 215.200 346.749 C 215.200 349.815,215.446 350.400,216.735 350.400 C 220.450 350.400,220.800 349.752,220.800 342.871 C 220.800 332.529,214.139 327.613,208.033 333.448 M233.578 332.567 C 229.556 335.347,228.471 337.751,230.379 339.659 C 230.807 340.087,231.225 342.323,231.306 344.626 C 231.490 349.837,232.374 350.588,238.319 350.588 C 244.734 350.588,244.800 350.511,244.800 342.929 C 244.800 333.455,239.446 328.511,233.578 332.567 M256.600 332.064 C 254.824 333.098,254.675 338.027,256.400 338.689 C 257.982 339.296,257.946 342.896,256.351 343.508 C 253.946 344.431,255.179 349.782,257.968 350.523 C 259.567 350.947,260.531 350.835,260.938 350.176 C 261.639 349.040,264.800 348.678,264.800 349.734 C 264.800 350.128,266.049 350.366,267.575 350.263 C 270.814 350.045,271.503 347.709,271.051 338.485 C 270.609 329.471,265.600 329.483,265.600 338.498 C 265.600 342.144,265.331 343.200,264.400 343.200 C 263.479 343.200,263.200 342.178,263.200 338.800 C 263.200 332.699,260.406 329.847,256.600 332.064 M163.200 338.553 C 163.200 340.094,163.079 340.154,162.200 339.045 C 161.650 338.351,160.660 337.591,160.000 337.355 C 159.337 337.118,159.784 336.898,161.000 336.863 C 162.750 336.813,163.200 337.159,163.200 338.553 M239.188 338.200 C 239.180 339.088,238.961 339.268,238.588 338.693 C 238.264 338.193,237.280 337.605,236.400 337.385 C 235.174 337.079,235.314 336.964,237.000 336.893 C 238.601 336.825,239.197 337.181,239.188 338.200 " stroke="none" fill="#414142" fill-rule="evenodd"></path></g></svg>